<?xml version="1.0" encoding="utf-8"?>
<!-- Generator: Adobe Illustrator 22.1.0, SVG Export Plug-In . SVG Version: 6.00 Build 0)  -->
<svg version="1.1" id="Layer_1" xmlns="http://www.w3.org/2000/svg" xmlns:xlink="http://www.w3.org/1999/xlink" x="0px" y="0px"
	 viewBox="0 0 970.1 606.6" style="enable-background:new 0 0 970.1 606.6;" xml:space="preserve">
<path style="fill:#FFFFFF;stroke:#000000;stroke-width:4.8768;stroke-miterlimit:10;" d="M827.7,25.6c-4.2-1.1-4.7,1.1-17.5,1.1
	s-15.3-1.6-24.3,3.8s-24.8,11.9-30,17.2c-5.1,5.3-57.7,8.4-71.4,10.4s-53.7,3.6-74.5,6s-40.9,9.9-56.2,16.3
	c-15.3,6.4-40.9,6.2-72.3,5.1s-47.8,6.6-74,4c-26.1-2.6-33.8-1.5-50.2,2.6c-16.4,4-41.6,14.8-52.6,21.9s-21.5,18.4-23.2,27.9
	c-1.6,9.5-1.6,10.4-6.4,15.5c-4.7,5.1-4.4,17.3-6.6,27s-9.9,37.8-19.7,47.7c-9.9,9.9-11.9,15.2-24.5,14.6
	c-12.6-0.5-16.3,1.5-22.3-3.5c-6-4.9-17.2-9.9-25.2-12.4c0.9-4-1.5-7.9-8.6-9.7s-12.4-1.1-18.6-3.8c-6.2-2.7-11.5-3.3-14.1-1.3
	c-5.7-1.3-15.9-0.9-21.9-2.9s-27.9-3.3-37.3-2.4c-9.3,0.9-19.9,13-28.5,18.4s-17.9,22.6-23.7,42.6c-5.8,19.9,2.4,43.5,4.7,45.3
	c2.4,1.8,4.2,1.5,4.6,6.6c0.4,5.1-3.3,11,9.5,23.2s21.5,16.2,36.3,19.4c14.8,3.1,37.3,2.7,41.1,0c3.8-2.7,11.3-4,14.4-3.6
	c3.5,3.5,10.2,4.7,16.3,2.4c6-2.4,14.1-2.4,18.1-3.3s6.2-4.8,5.3-9.3c6.6-2.7,22.5-6,28.9-14.4c13.7,0.2,28.5,1.8,31.4,6
	s14.1,26.8,20.6,40.2c8.2,16.7,12.6,23.4,14.2,35.1c1.7,11.7,2,16.1,7.5,23.2s6.2,11,11.1,21s16.1,17.4,32.5,28.9
	s39.1,19.4,55.9,18.4c16.8-0.9,25-2.6,38.3,0.1c13.3,2.7,29.6,7.4,61.7,5.4s37.6-5.1,55.7,2.7c18.1,7.9,46.2,19.2,78.2,21
	s57,2.7,73.8,5.5c16.8,2.7,33.2,9.5,41.6,11c8.4,1.5,14.4,0.2,21.7,6.9c7.3,6.8,19.2,12.1,22.6,14.8c3.5,2.7,6.9,6.8,13.9,6
	c6.9-0.7,15.7-1.1,19.4,0.1c3.7,1.2,8.2,1.4,11.3,0s10.2,0.6,16.3,2.3c6,1.6,11,2.4,11.9-1.5c0.9-3.8-5.1-10.4-12.6-13.5
	c16.8-0.6,21.5-4.2,26.5-5.3c4.9-1.1,19.5-4.6,24.1-10.6s-1.6-10.4-3.1-10.2s-5.5,0.2-9.7,1.1c14.4-6.2,15-8.8,14.4-12.1
	s-12.6-3.8-18.1-2.4c16.3-7.3,15.5-8.4,13.9-12.2s-19.7-3.1-26.7-1.5c17-6,18.5-8,17.7-10c-0.7-2-7.7-6.8-12.8-4
	c-7.9-0.5-13.3-0.2-14.8,1.6c-7.7-1.8-15.9-2.2-20.1-0.5c-5.5-3.6-15.3-2-23.9-1.6c-8.6,0.4-18.1-1.5-23-2.4s-12.6,1.1-19,3.1
	s-14.6-0.2-32-6.6s-44-18.1-61.5-26.1s-26.8-11.5-50.8-16.6c-23.9-5.1-31-5.3-38.3-6.4s-19.4,0.6-31.6-0.7
	c-12.2-1.3-43.3-7.1-53.1-9.9c-9.9-2.7-15.2-3.8-19-5.3c17.7-6.2,35.1-11.1,57.5-13.2c22.5-2,28.5-3.1,34.3-4s12.1-2.7,27-0.6
	c15,2.2,28.1,4.6,39.1,4.4s13-0.2,27.6,3.5s26.5,8.2,35.8,8.4c9.3,0.2,15.2,2.2,37.8,6.8c22.6,4.6,53.1,4.4,85.5,1.5
	c32.3-2.9,72.1-6.8,93.1-8c21-1.3,23.6-4.6,39.1-9.5L945,308c0,0-17.1,1-25-2s-76.7-9.8-76.7-9.8s84.9-14.8,101.7-15.7
	c3.9-23.6,1.2-102.9,1.2-102.9c-2.2-7.3,0.8-6.8-17.1-8.8c-17.9-2-59.5-7.7-64.6-7.3s-32.7-2.2-59.7-2.9s-50.6,0.2-54.8,1.8
	s-8.9,6.2-17.3,6.2c-8.4,0-12.8,4.2-25.7,3.5c-13-0.7-29.4,5.3-35.8,8.6c-6.4,3.3-21,4.9-28.1,3.1c-7.1-1.8-14.2-2.9-31.6-2
	c-17.4,0.9-40.5,2.7-50.6,0.9c-10-1.8-22.8-5.5-38.5-8.2s-37.8-7.5-52.4-9.1c37.1-4.4,49.5-7.5,56.4-9.9s15.3-3.8,30.3-2.6
	c15,1.3,21.9,1.3,30.7-2.2s19-3.1,37.6-6s43.5-9.5,64.3-19.7s36-17.5,51.1-21.9c15.2-4.4,15-5.7,25.4-3.3c10.4,2.4,15.9,2.4,34.1,2
	c18.3-0.4,25.4-0.7,28.1-4.4c10.4,0,11.9,1.1,13.5,0c4,1.3,15,2.6,17.7,1.3c12.1,0.9,19.4,2.4,21.2-1.3c1.8-3.6-0.4-8.9-11.7-11.9
	c18.5,3.3,19.9,0,19.9-3.5s-4.4-6.9-12.1-8.9c12.1,0,15.7,0.5,16.8-3.5s-2.6-8.8-9.5-10.6c6.9,0.9,12.1-3.8,8-8.4
	c-4-4.6-19.9-9.5-25-9.7s-15.3-3.3-21.9-0.9c9.3-6.2,8.8-13,4.9-13.9C846,23.3,831.9,26.7,827.7,25.6z"/>
</svg>
