<?xml version="1.0" encoding="utf-8"?>
<!-- Generator: Adobe Illustrator 22.1.0, SVG Export Plug-In . SVG Version: 6.00 Build 0)  -->
<svg version="1.1" id="Layer_1" xmlns="http://www.w3.org/2000/svg" xmlns:xlink="http://www.w3.org/1999/xlink" x="0px" y="0px"
	 viewBox="0 0 264 476" style="enable-background:new 0 0 264 476;" xml:space="preserve">
<path style="fill:none;stroke:#000000;stroke-width:5.7509;stroke-miterlimit:10;" d="M208.3,333.1c0.9,6.2-2.5,12.9-6.9,15.9
	c-4.4,3-7.1,1.3-8.8,4.3c-1.3,2.3-2.8,3-5.5,3.7c-2.6,0.7-3.4,1.7-6.2,1.7c-2.8,0-4.4,0.3-7.8,3c-3.4,2.7-4.9,10.4-8.7,14.7
	c-3.7,4.2-6.2,7.1-19.6,8.8c-13.4,1.8-28.3,0-38.5-1.1c-10.3-1.1-22.4-8.3-25.6-10.9c-3.2-2.7-1.8-7.1-1.8-11.1c0-4.1-5.3-8.1-9.7-9
	c-4.4-0.9-11.1,3.2-15.2,1.9c-4.1-1.2-5.8-8.5-8.7-11c-2.8-2.5-4.8-17.8,0-20.3c4.8-2.5,18.2,3.4,21.1,7.5c2.8,4.1,7.2,3.4,9.5,1.6
	c2.3-1.9,7.3-13-0.3-13c-6.9,0-15.8-9.3-9.1-16c4.6-4.6,9.1-4.6,11.4-4.6c3,0,5,0.5,3.4-2.4c-1.6-2.9-3.8-5.4-7.4-0.7
	c-3.6,4.8-6.9,5.3-15.3-0.4c-8.5-5.7-6.5-8.5-5.8-15.4c0.7-6.9,9-11,13.5-6.5c4.5,4.5,8,1.9,10.7,2.8c2.8,0.9,0.5-6.4,2.4-11.6
	c1.9-5.3,6.8-1,5.5-8c-1.3-7-3.8-7.7-5.8-8c-4.3-0.8-4.1-5.2-10.1-2.4c-6,2.7-8.2,0-10.5-3.7c-2.3-3.7-6-6.2-2.4-13.7
	c3.6-7.4,13.9-5.3,19.3-4.4c5.4,0.9,8.3-6.9,10.5-12.6c2.1-5.7-1.7-9.4-12.2-12.3c-10.5-2.9-10.7-2.3-11.4-10.7
	c-0.6-8.5-0.7-5.3,3.2-13c4-7.7,8.7-5.7,12.1-2.8c3.5,2.9,3.3,0.3,6.9-4.6c3.6-4.9,3.2-4.8,2.9-9c-0.1-1,0-1.9,0.3-2.8
	c1.1-4.6,5.2-7.9,9.9-8.2l58.8-2.9c4.7-0.3,9,2.6,10.7,7.1c1.9,5.2,4.6,11.9,5,17.2c0.7,9,7.9,0.2,12.7,6c4.8,5.8-6.1,24-10.7,25.4
	c-4.6,1.4-4.4,7.1-2.1,12.4c2.3,5.3,5.5,11.1,7.8,7.8c2.3-3.3,4.1-4.4,8.5-4.4c4.4,0,6,8.5,7.6,13.8c1.6,5.3,3,14.3-4.3,17.7
	c-7.2,3.4-7.2-3.3-11.1-2.2c-2.4,0.7-8.7,2.3-11,4.8c-1.4,1.5-0.1,1.9-0.2,5.3c-0.2,6.3,0.3,6.2,3.3,7.2c3,1.1,3.4,7,2.7,11.3
	c-0.7,4.2,1.2,4.2,3,2.1c1.8-2.1,2.5-5.8,9.4-7.8c6.9-1.9,9.4,4.6,12,10.7c2.7,6.2,0.5,12.9-7.9,17.1c-8.5,4.2-11.6,3.1-15.7,0.6
	c-4.1-2.5-6.9,3.4-6.2,9.4c0.7,6,2.9,9,3.4,11.3c0.5,2.3-0.2,9.8,3.8,11.5c4,1.7,7.4-0.8,16.2-6.4
	C202.3,318.1,207.4,326.9,208.3,333.1z"/>
<path style="fill:none;stroke:#000000;stroke-width:5.7509;stroke-miterlimit:10;" d="M167.3,320.8c-0.7,0-1.5-0.1-2.2-0.3
	c-0.8,0-1.7,0.1-2.7,0.2c-2.3,0.2-4.4-0.4-6.9-1.1c-1.5-0.4-3.1-0.9-5.2-1.4c-3.9-0.8-10.1-1.1-20.6-0.9c-2.2,0-4.7-0.1-7.3-0.2
	c-4.9-0.2-10-0.5-13.2,0.4c-7.2,1.9-17.3,1.8-21.6,1.7l0,0c-5.3-0.1-14-2.1-15.1-7.4c-0.9-4.4,1.8-7.6,4.5-9
	c4.4-2.4,9.2-2.1,11.8-1.9c0.4,0,0.8,0,1.1,0.1c4.9,0.1,12,0.7,17.1,2c7.1,1.8,18.7,2,18.9,2l17.9-1.6c2.1,0,8.6-0.6,12.8-1
	c4.5-0.4,6.8-0.6,7.7-0.6c2.2,0,7.5,0.1,7.4,4.8l-0.1,3.8c1.4,3.2,1.6,5.8,0.7,7.6C171,320.1,169.1,320.8,167.3,320.8z"/>
</svg>
