<?xml version="1.0" encoding="utf-8"?>
<!-- Generator: Adobe Illustrator 22.1.0, SVG Export Plug-In . SVG Version: 6.00 Build 0)  -->
<svg version="1.1" id="Layer_1" xmlns="http://www.w3.org/2000/svg" xmlns:xlink="http://www.w3.org/1999/xlink" x="0px" y="0px"
	 viewBox="0 0 749.5 168.8" style="enable-background:new 0 0 749.5 168.8;" xml:space="preserve">
<path style="fill:none;stroke:#000000;stroke-width:3;stroke-miterlimit:10;" d="M120.3,20.2c3.1-0.4,6.5,1.2,8,3.5
	c1.5,2.2,0.7,3.6,2.2,4.4c1.2,0.7,1.5,1.4,1.9,2.8c0.3,1.3,0.9,1.7,0.9,3.1c0,1.4,0.2,2.2,1.5,3.9c1.3,1.7,5.3,2.5,7.4,4.4
	c2.1,1.9,3.6,3.1,4.4,9.9c0.9,6.8,0,14.2-0.5,19.4c-0.5,5.2-4.2,11.3-5.5,12.9c-1.3,1.6-3.6,0.9-5.6,0.9c-2.1,0-4.1,2.7-4.5,4.9
	c-0.4,2.2,1.6,5.6,1,7.7c-0.6,2.1-4.3,2.9-5.5,4.4c-1.2,1.4-9,2.4-10.2,0c-1.3-2.4,1.7-9.2,3.8-10.6c2.1-1.4,1.7-3.6,0.8-4.8
	c-0.9-1.2-6.6-3.7-6.6,0.2c0,3.5-4.7,8-8.1,4.6c-2.3-2.3-2.3-4.6-2.3-5.8c0-1.5,0.3-2.5-1.2-1.7c-1.5,0.8-2.7,1.9-0.3,3.7
	c2.4,1.8,2.7,3.5-0.2,7.7c-2.9,4.3-4.3,3.3-7.7,2.9c-3.5-0.3-5.5-4.5-3.3-6.8c2.3-2.3,0.9-4,1.4-5.4c0.5-1.4-3.2-0.3-5.9-1.2
	c-2.7-0.9-0.5-3.4-4-2.8c-3.5,0.7-3.9,1.9-4.1,2.9c-0.4,2.2-2.6,2.1-1.2,5.1c1.4,3,0,4.1-1.8,5.3c-1.9,1.1-3.1,3-6.9,1.2
	c-3.7-1.8-2.7-7-2.2-9.8c0.5-2.7-3.5-4.2-6.3-5.3c-2.9-1.1-4.7,0.9-6.2,6.1c-1.5,5.3-1.1,5.4-5.4,5.7c-4.3,0.3-2.7,0.4-6.6-1.6
	c-3.9-2-2.9-4.4-1.4-6.1c1.4-1.7,0.2-1.7-2.3-3.5c-2.5-1.8-2.4-1.6-4.5-1.5c-0.5,0-1,0-1.4-0.1c-2.3-0.5-4-2.6-4.1-5L26,46.3
	c-0.1-2.4,1.3-4.6,3.6-5.4c2.6-0.9,6-2.3,8.7-2.5c4.5-0.4,0.1-4,3-6.4c2.9-2.4,12.1,3.1,12.8,5.4c0.7,2.3,3.6,2.2,6.2,1.1
	c2.7-1.2,5.6-2.8,3.9-3.9c-1.7-1.2-2.2-2.1-2.2-4.3s4.3-3,6.9-3.8c2.7-0.8,7.2-1.5,8.9,2.1c1.7,3.6-1.7,3.6-1.1,5.6
	c0.3,1.2,1.2,4.4,2.4,5.5c0.7,0.7,0.9,0,2.7,0.1c3.2,0.1,3.1-0.2,3.7-1.7c0.5-1.5,3.5-1.7,5.7-1.3c2.1,0.4,2.1-0.6,1.1-1.5
	c-1.1-0.9-2.9-1.2-3.9-4.7c-1-3.5,2.3-4.7,5.4-6.1c3.1-1.3,6.5-0.3,8.6,4c2.1,4.3,1.5,5.9,0.3,7.9c-1.2,2.1,1.7,3.5,4.7,3.1
	c3-0.4,4.5-1.5,5.7-1.7c1.2-0.3,5,0.1,5.8-1.9c0.9-2-0.4-3.7-3.3-8.2C112.7,23.3,117.2,20.7,120.3,20.2z"/>
<path style="fill:none;stroke:#000000;stroke-width:3;stroke-miterlimit:10;" d="M114.1,40.9c0,0.4-0.1,0.8-0.2,1.1
	c0,0.4,0.1,0.9,0.1,1.4c0.1,1.2-0.2,2.2-0.6,3.5c-0.2,0.7-0.5,1.6-0.7,2.6c-0.4,2-0.6,5.1-0.4,10.4c0,1.1,0,2.4-0.1,3.7
	c-0.1,2.5-0.2,5.1,0.2,6.7c1,3.6,0.9,8.7,0.9,10.9l0,0c0,2.7-1.1,7.1-3.7,7.6c-2.2,0.5-3.8-0.9-4.5-2.3c-1.2-2.2-1-4.6-1-5.9
	c0-0.2,0-0.4,0-0.6c0-2.5,0.4-6.1,1-8.6c0.9-3.6,1-9.4,1-9.5l-0.8-9c0-1-0.3-4.3-0.5-6.5c-0.2-2.3-0.3-3.4-0.3-3.9
	c0-1.1,0.1-3.8,2.4-3.7l1.9,0c1.6-0.7,2.9-0.8,3.9-0.3C113.8,39,114.1,40,114.1,40.9z"/>
</svg>
