<?xml version="1.0" encoding="utf-8"?>
<!-- Generator: Adobe Illustrator 22.1.0, SVG Export Plug-In . SVG Version: 6.00 Build 0)  -->
<svg version="1.1" id="Layer_1" xmlns="http://www.w3.org/2000/svg" xmlns:xlink="http://www.w3.org/1999/xlink" x="0px" y="0px"
	 viewBox="0 0 1920 1080" style="enable-background:new 0 0 1920 1080;" xml:space="preserve">
<g>
	<path d="M516.1,434.3v165.5h-31.9v-70.6h-75v70.6H377V434.3h32.2v66.9h75v-66.9H516.1z"/>
	<path d="M602.6,602.1c-9.8,0-18.6-1.7-26.6-5c-7.9-3.3-14.7-7.9-20.3-13.6c-5.6-5.7-9.9-12.4-12.9-20c-3-7.6-4.5-15.6-4.5-24
		c0-8.7,1.5-16.9,4.4-24.6c2.9-7.7,7.2-14.5,12.8-20.3c5.6-5.8,12.4-10.4,20.4-13.9c8-3.4,17-5.1,26.9-5.1c9.9,0,18.8,1.7,26.7,5.1
		c7.8,3.4,14.5,8,20,13.8c5.5,5.8,9.7,12.4,12.6,20c2.9,7.6,4.3,15.5,4.3,23.8c0,2,0,4-0.1,5.8c-0.1,1.9-0.3,3.4-0.6,4.7h-94.4
		c0.5,4.8,1.6,9.1,3.5,12.8c1.9,3.7,4.3,6.9,7.2,9.6c2.9,2.6,6.3,4.7,10,6.1c3.7,1.4,7.6,2.1,11.7,2.1c6.2,0,12.1-1.5,17.6-4.5
		c5.5-3,9.3-7,11.3-12l26.8,7.5c-4.5,9.3-11.7,17-21.6,23C628,599.1,616.3,602.1,602.6,602.1z M634.3,528.4
		c-0.8-9.2-4.2-16.5-10.1-22c-6-5.5-13.2-8.3-21.8-8.3c-4.2,0-8.1,0.7-11.8,2.2c-3.7,1.5-6.9,3.5-9.7,6.2c-2.8,2.6-5.1,5.8-6.9,9.6
		c-1.8,3.7-2.8,7.8-3.1,12.4H634.3z"/>
	<path d="M718.9,602.1c-5.9,0-11.4-1-16.5-2.9c-5.1-1.9-9.6-4.7-13.3-8.2c-3.7-3.5-6.6-7.6-8.7-12.2c-2.1-4.7-3.1-9.8-3.1-15.4
		c0-5.7,1.3-11.1,3.8-16c2.6-4.9,6.1-9,10.7-12.5c4.6-3.4,10.1-6.1,16.4-8c6.4-1.9,13.4-2.9,21-2.9c5.4,0,10.8,0.5,16,1.4
		c5.2,0.9,9.8,2.3,13.9,4v-7c0-8.1-2.3-14.3-6.9-18.6c-4.6-4.3-11.4-6.5-20.4-6.5c-6.5,0-12.9,1.2-19.1,3.5
		c-6.2,2.3-12.6,5.8-19.1,10.3l-9.6-19.8c15.7-10.4,32.6-15.6,50.8-15.6c17.6,0,31.2,4.3,40.9,12.9c9.7,8.6,14.6,21.1,14.6,37.4v38
		c0,3.3,0.6,5.6,1.7,7c1.2,1.4,3.1,2.2,5.7,2.3v26.6c-5.3,1.1-9.9,1.6-13.8,1.6c-5.9,0-10.5-1.3-13.6-4c-3.2-2.6-5.2-6.1-5.9-10.5
		l-0.7-6.8c-5.4,7.1-12,12.6-19.8,16.3C736.1,600.2,727.7,602.1,718.9,602.1z M727.7,579.2c5.3,0,10.3-0.9,15-2.8
		c4.7-1.9,8.4-4.3,11.1-7.5c3.4-2.6,5.1-5.6,5.1-8.9v-14c-3.7-1.4-7.8-2.5-12.1-3.4c-4.4-0.9-8.5-1.3-12.6-1.3
		c-8.1,0-14.7,1.8-19.8,5.5c-5.1,3.7-7.7,8.3-7.7,13.9c0,5.3,2,9.7,6.1,13.2C716.9,577.5,721.8,579.2,727.7,579.2z"/>
	<path d="M819.1,429.6h31.2v131c0,4.5,1.1,8,3.3,10.5c2.2,2.5,5.3,3.7,9.3,3.7c1.9,0,3.9-0.3,6.2-0.9c2.3-0.6,4.4-1.4,6.4-2.3
		l4.2,23.8c-4.2,2-9.1,3.6-14.7,4.7c-5.6,1.1-10.6,1.6-15.2,1.6c-9.8,0-17.4-2.6-22.7-7.8c-5.4-5.2-8-12.6-8-22.3V429.6z"/>
	<path d="M966.4,593.4c-4.2,1.9-9.3,3.7-15.4,5.6c-6.1,1.9-12.4,2.8-19.1,2.8c-4.4,0-8.4-0.5-12.2-1.6c-3.8-1.1-7.1-2.8-10-5.2
		c-2.9-2.4-5.2-5.5-6.9-9.3c-1.7-3.8-2.6-8.4-2.6-13.9v-70.2h-16.1v-24h16.1V438h31.2v39.6h25.6v24h-25.6v59.7
		c0,4.4,1.1,7.4,3.4,9.2c2.3,1.8,5,2.7,8.3,2.7c3.3,0,6.4-0.5,9.6-1.6c3.1-1.1,5.6-2,7.5-2.8L966.4,593.4z"/>
	<path d="M1096.2,599.7H1065v-68.5c0-9.6-1.8-16.7-5.4-21.3c-3.6-4.6-8.6-6.9-15.2-6.9c-2.8,0-5.8,0.6-8.9,1.9
		c-3.1,1.2-6.1,3-8.9,5.2c-2.8,2.3-5.4,4.9-7.7,8c-2.3,3.1-4,6.5-5.1,10.3v71.3h-31.2V429.6h31.2v70.6c4.5-7.9,10.6-14,18.3-18.3
		c7.7-4.3,16.2-6.4,25.5-6.4c7.9,0,14.4,1.4,19.3,4.1c5,2.7,8.9,6.3,11.7,10.8c2.8,4.5,4.7,9.6,5.8,15.4c1.1,5.8,1.6,11.7,1.6,17.7
		V599.7z"/>
	<path d="M1197.2,600.9c-12.1,0-23.1-2.4-33-7.1c-9.9-4.7-18.3-11-25.4-18.9c-7.1-7.8-12.6-16.8-16.4-26.9
		c-3.9-10.1-5.8-20.4-5.8-31c0-11,2.1-21.6,6.2-31.7c4.1-10.1,9.8-19,17-26.8c7.2-7.8,15.8-13.9,25.8-18.5
		c9.9-4.6,20.7-6.9,32.4-6.9c12,0,22.9,2.4,32.7,7.3c9.9,4.9,18.3,11.3,25.3,19.2c7,7.9,12.4,16.9,16.3,27
		c3.9,10.1,5.8,20.4,5.8,30.8c0,11-2,21.6-6.1,31.6c-4,10-9.6,18.9-16.8,26.6c-7.1,7.7-15.7,13.8-25.6,18.4
		C1219.6,598.6,1208.8,600.9,1197.2,600.9z M1149.1,517c0,7.1,1.1,14.1,3.3,20.7c2.2,6.7,5.3,12.6,9.4,17.7
		c4.1,5.1,9.2,9.2,15.1,12.4c6,3.1,12.8,4.7,20.4,4.7c7.8,0,14.6-1.6,20.6-4.8c6-3.2,11-7.4,15.2-12.7c4.1-5.3,7.2-11.2,9.3-17.8
		c2.1-6.6,3.1-13.3,3.1-20.2c0-7.1-1.1-14.1-3.4-20.7c-2.3-6.7-5.4-12.6-9.6-17.7c-4.1-5.1-9.2-9.2-15.2-12.2
		c-6-3-12.7-4.5-20.2-4.5c-7.8,0-14.7,1.6-20.7,4.8c-6.1,3.2-11.1,7.4-15.2,12.6c-4,5.2-7.1,11.1-9.2,17.7
		C1150.2,503.4,1149.1,510.2,1149.1,517z"/>
	<path d="M1372.9,602.1c-9.6,0-18-2.1-25.2-6.4c-7.1-4.3-12.7-10.1-16.8-17.4v71.1h-31.2V477.6h27.3v21c4.5-7.1,10.3-12.8,17.5-16.9
		c7.1-4.1,15.4-6.2,24.7-6.2c8.2,0,15.9,1.7,22.8,5c7,3.3,13,7.8,18.1,13.5c5,5.7,9,12.4,11.9,20c2.9,7.7,4.3,15.8,4.3,24.4
		c0,8.9-1.3,17.2-4,24.9c-2.6,7.8-6.3,14.5-11.1,20.3c-4.7,5.8-10.4,10.3-16.9,13.5C1387.8,600.4,1380.7,602.1,1372.9,602.1z
		 M1362.4,575.5c4.7,0,9-1,12.9-3c4-2,7.3-4.7,10.1-8.2c2.8-3.4,5-7.4,6.5-11.9c1.6-4.5,2.3-9.2,2.3-14c0-5.1-0.9-9.9-2.6-14.3
		c-1.7-4.4-4.1-8.3-7.1-11.5c-3-3.3-6.6-5.8-10.7-7.7c-4.1-1.9-8.6-2.8-13.4-2.8c-3,0-6,0.5-9.1,1.5c-3.1,1-6,2.4-8.6,4.3
		c-2.6,1.9-5,4-7.1,6.5c-2.1,2.5-3.7,5.2-4.8,8.2v28.7c2.8,7,7.1,12.8,12.8,17.4C1349.5,573.2,1355.7,575.5,1362.4,575.5z"/>
	<path d="M1493.6,602.1c-10.3,0-20.3-1.6-30.1-4.9c-9.8-3.3-18.2-7.9-25.2-14l11.7-19.6c7.5,5.3,14.7,9.3,21.8,12
		c7.1,2.7,14.1,4.1,21.1,4.1c6.2,0,11.1-1.2,14.7-3.5c3.6-2.3,5.4-5.7,5.4-10c0-4.3-2.1-7.5-6.3-9.6c-4.2-2-11-4.3-20.5-7
		c-7.9-2.2-14.7-4.3-20.3-6.3c-5.6-2-10.1-4.3-13.5-6.9c-3.4-2.6-5.9-5.5-7.5-8.9c-1.6-3.3-2.3-7.3-2.3-12c0-6.2,1.2-11.8,3.6-16.8
		c2.4-5,5.8-9.2,10.1-12.7c4.3-3.5,9.4-6.2,15.3-8c5.8-1.9,12.2-2.8,19-2.8c9.2,0,17.8,1.3,25.8,4c8,2.6,15.3,6.9,22,12.8
		l-12.6,18.9c-6.2-4.7-12.2-8.1-18.1-10.3c-5.8-2.2-11.6-3.3-17.4-3.3c-5.3,0-9.7,1.1-13.3,3.3c-3.6,2.2-5.4,5.7-5.4,10.5
		c0,2.2,0.4,4,1.3,5.4c0.9,1.4,2.2,2.6,4.1,3.7c1.9,1.1,4.3,2.1,7.3,3.1c3,1,6.8,2.1,11.3,3.1c8.4,2.2,15.6,4.4,21.6,6.5
		c6,2.2,10.9,4.7,14.7,7.5c3.8,2.8,6.6,6,8.4,9.7c1.8,3.7,2.7,8,2.7,13.2c0,12-4.4,21.4-13.3,28.3
		C1520.9,598.6,1508.8,602.1,1493.6,602.1z"/>
</g>
<g>
	<path style="fill:#F91100;" d="M1209.1,506.8c6.8,0,13.5,0,20.3,0c0,7.2,0,14.3,0,21.5c-6.7,0-13.4,0-20.2,0c0,6.8,0,13.5,0,20.3
		c-0.5,0-0.8,0.1-1.2,0.1c-6.4,0-12.8,0-19.3,0c-1,0-1.2-0.3-1.2-1.2c0-6,0-11.9,0-17.9c0-1-0.3-1.3-1.3-1.3c-5.9,0-11.8,0-17.7,0
		c-0.4,0-0.8,0-1.3,0c0-7.2,0-14.3,0-21.6c0.4,0,0.9,0,1.3,0c6,0,11.9,0,17.9,0c0.9,0,1.2-0.3,1.2-1.2c0-6,0-12,0-18
		c0-1,0.3-1.3,1.3-1.3c6.4,0,12.8,0,19.2,0c0.9,0,1.2,0.3,1.2,1.2c0,6,0,11.9,0,17.9C1209.1,505.8,1209.1,506.2,1209.1,506.8z"/>
</g>
</svg>
