<?xml version="1.0" encoding="utf-8"?>
<!-- Generator: Adobe Illustrator 22.1.0, SVG Export Plug-In . SVG Version: 6.00 Build 0)  -->
<svg version="1.1" id="Layer_1" xmlns="http://www.w3.org/2000/svg" xmlns:xlink="http://www.w3.org/1999/xlink" x="0px" y="0px"
	 viewBox="0 0 1920 1080" style="enable-background:new 0 0 1920 1080;" xml:space="preserve">
<g>
	<path style="fill:#EDEDED;" d="M1501.9,345.6c-8.3,72.9-17.6,145.6-24.6,218.6c-2.9,30.1-16.2,55-44.6,56.1
		c-14.9,0.6-31.3-23.3-45.8-37.5c-6.9-6.8-11-16.5-21.4-33c-14,69.3-59.9,72.7-110.5,63.8c-13.2-2.3-27.6-7.3-37.5-15.7
		c-16.6-14-27.1-11.1-41.8,2.9c-31.2,29.6-53.5,25.6-75.3-11.4c-6.4-10.9-10.1-23.6-17.6-33.5c-7.7-10.1-18.7-17.7-28.2-26.4
		c-9,10-19.7,19-26.4,30.3c-6.3,10.6-5.7,25.9-13,35.2c-7.5,9.6-23.6,22.5-31.5,20c-39-12.4-43.6,14.3-48.6,39.3
		c-7.1,36-11.4,72.5-17.6,108.6c-2.2,13-6.4,25.7-9.7,38.6c-4.6,0.3-9.3,0.7-13.9,1c-3.4-19.1-9-38-9.9-57.2
		c-5.9-131.4-10.9-262.8-20.9-394.6c-7.3,63.8-14.4,127.6-22,191.3c-2.4,20.1-3.2,41.1-10.2,59.7c-11.3,30.1-49.7,33.9-69.2,8.3
		c-11.4-14.9-21-31.1-31.8-47.4c-45.2,70.6-78.2,77.3-159.6,37.1c-7.8-3.9-23.9,1-32,7.3c-36.2,28-55.9,25.4-78.4-13.8
		c-6.9-12.1-11.8-25.3-18.9-37.2c-16.6-27.9-33.5-27.2-48.8,2.4c-5.7,11.1-9.7,23.4-12.9,35.6c-5.9,22.2-19.7,33.4-41.9,27.2
		c-26.7-7.5-34.7,7.7-38.6,28.1c-7.2,38.5-12.9,77.3-19.9,115.9c-2.5,14.1-6.8,27.9-10.3,41.9c-4.6,0.4-9.1,0.7-13.7,1.1
		c-3.3-16.8-8.8-33.4-9.6-50.3C239,622.9,233.7,488.1,224.6,353c-9.3,76.4-20.2,152.6-27.2,229.2c-2.7,29.2-17.9,48.3-41.7,49.6
		c-14.3,0.8-30.8-19.6-44.6-32.4c-8-7.4-12.5-18.6-20.4-30.9c-12,18.2-19.4,38.5-34,48.8c-12.5,8.9-33.2,6.3-53.8,1.8
		c43.6-2.9,55.6-33.3,69.1-64.7c8.4-19.4,23.1-16.5,34.2,0.8c12.8,19.9,25.6,39.7,45.1,70c12-22.2,24-35.3,26.1-49.8
		c11.3-78.9,19.7-158.2,30.2-237.2c2.4-18.4,9.4-36.2,22.3-53.3c30.8,139.6,19.8,280.9,33.2,429.6c8.5-33.9,14.1-59.4,21.4-84.3
		c6.3-21.7,19.6-35.7,44.8-30c20.4,4.6,30-4.7,35.7-23.5c4.3-14.3,10.1-29.1,18.8-41c20.2-27.7,49-26.6,68.1,2.2
		c10.4,15.7,17.4,33.7,26.8,50.2c12.1,21.3,27.7,26.1,44.6,5.4c21.6-26.5,41.4-24.5,67.8-4.2c38.2,29.4,92.7,13,114.2-29.5
		c4.7-9.3,13.9-22,21.7-22.5c7.4-0.5,17.2,11.8,23.5,20.3c11.9,16,22,33.2,39.4,60c12.1-20.8,24.7-33.4,26.7-47.5
		c11.2-77.6,19.3-155.7,29.6-233.5c2.6-19.8,9.4-39.1,14.2-58.6c5.4,0.1,10.8,0.3,16.2,0.4c3.3,19.8,8.6,39.5,9.5,59.4
		c5.5,122.6,10.1,245.3,15.3,377c8.7-36.1,14.3-63.8,22.2-90.8c6.8-23,20.1-36.2,48.1-30.8c8.7,1.7,22.7-8.9,29.5-17.6
		c7.4-9.4,8.1-23.9,14-34.9c22.1-41.3,56.7-42.1,80.6-2.2c4.5,7.6,8,15.8,11.9,23.7c22.4,44.7,24.9,43.7,64.7,16.6
		c11.7-8,33.5-3.3,50.2-1.2c30.2,3.9,60.1,14.2,90,13.6c10.6-0.2,20.5-24.2,31.1-37.1c6.9-8.4,13.7-21.7,21.8-22.7
		c7.2-0.9,17.6,11.1,23.8,19.4c11.9,16.1,21.8,33.7,32.5,50.5c37.4-5.8,34.9-34.7,37.9-58.3c8.9-69,15.7-138.3,24.7-207.3
		c2.8-21.3,9.8-42.1,14.9-63.1c5.3,0,10.6-0.1,16-0.1c3.3,19.5,8.8,38.8,9.7,58.4c5.7,123.9,10.3,247.9,15.6,379.7
		c8-34.9,13.1-62.9,21.1-90c6.9-23.4,18.5-41,49.5-33.5c8.1,2,21.9-9.4,29.4-17.9c6.2-6.9,4.7-20.7,10.9-27.7
		c12.8-14.4,27.9-35.6,43-36.4c14.1-0.7,30.1,20.6,43.7,33.8c6,5.8,8.1,15.6,12.2,23.4c19.3,36.8,25.8,37.3,58.6,12.2
		c9.8-7.5,26.8-14.8,36.7-11.3c24.9,8.8,47.7,23.8,71.3,36.3c-0.7,3.5-1.4,6.9-2.2,10.4c-18.4-5.1-40.2-5.7-54.5-16.4
		c-19.6-14.6-30.3-14.6-47.6,2.6c-27.6,27.6-49.7,23.8-70.6-9.3c-8.7-13.9-14.7-29.4-23-43.6c-16.4-28-33.3-27.5-48.6,1.9
		c-5.8,11.1-9.1,23.6-12.6,35.7c-6.2,21.5-19.6,33.8-41.9,27.9c-25.8-6.8-35,5.9-38.8,27.5c-7.3,41.1-13.7,82.3-21.3,123.3
		c-2.3,12.3-7.2,24-18,35.4C1508.1,645.8,1520.3,494.3,1501.9,345.6z"/>
</g>
</svg>
