<?xml version="1.0" encoding="utf-8"?>
<!-- Generator: Adobe Illustrator 22.1.0, SVG Export Plug-In . SVG Version: 6.00 Build 0)  -->
<svg version="1.1" id="Layer_1" xmlns="http://www.w3.org/2000/svg" xmlns:xlink="http://www.w3.org/1999/xlink" x="0px" y="0px"
	 viewBox="0 0 264 476" style="enable-background:new 0 0 264 476;" xml:space="preserve">
<path style="fill:none;stroke:#000000;stroke-width:5.7509;stroke-miterlimit:10;" d="M214.3,306l-5.6,21.2c-1,3.8-6.6,3.1-6.6-0.9
	c0-20.3-2.1-34.6-0.6-38.7c2.2-6,6.9-23.3,2.5-33.9c-7.2-17.4-16.9-17.2-24.4-14.3c0.3,0.3,0.7,0.7,1.2,1.1c10.5,9,24.7,24,12,50.9
	c-12.7,26.9-33.6,46.3-64.3,44.1c-30.6-2.3-75.5-29.2-87.5-91.3C28.9,182,62.4,136.9,83.5,120c55.7-44.9,95-7.1,98,15.7
	c3,22.8-8.2,39.2-12.3,40.4c-0.2,0-0.3,0.1-0.5,0.2c14.4,13.2,41.8,40.7,46.3,61.2c5.2,23.9,2.7,14.5-0.6,67.9
	C214.3,305.5,214.3,305.7,214.3,306z"/>
<g>
	<g>
		<path style="fill:none;stroke:#000000;stroke-width:5.7509;stroke-miterlimit:10;" d="M132.6,211.9c-2.7,0-5.6-0.8-8.1-2.2
			c-3.2-1.8-4.6-3.9-5.8-5.6c-0.9-1.3-1.6-2.3-3.4-3.6c-1.7-1.1-3.1-1.5-4.3-1.9c-1.9-0.5-4.6-1.3-6.2-4.4
			c-1.7-3.5-0.7-5.9,2.8-13.8l2.8-6.4c2-4.6,2.5-5.7,4.1-7.4c4.9-5.3,13.5-8.8,19.1-5.3c3.3,2,3.9,5.2,4.3,7c0.3,1.5,0.4,2,1,2.6
			c0.8,0.8,2,1,4.4,1.1c2.7,0.1,6.8,0.3,9.6,4c3.1,4.1,2.3,10.1,0.4,13.8c-1.4,2.6-2.7,4-3.7,4.8c0.9,4.2,1.4,7.5-0.9,9.8
			c-1.2,1.2-3.3,2.4-6.4,1.5c-1,2.4-2.6,3.8-3.9,4.5C136.6,211.5,134.7,211.9,132.6,211.9z"/>
	</g>
</g>
</svg>
