<?xml version="1.0" encoding="utf-8"?>
<!-- Generator: Adobe Illustrator 22.1.0, SVG Export Plug-In . SVG Version: 6.00 Build 0)  -->
<svg version="1.1" id="Layer_1" xmlns="http://www.w3.org/2000/svg" xmlns:xlink="http://www.w3.org/1999/xlink" x="0px" y="0px"
	 viewBox="0 0 264 476" style="enable-background:new 0 0 264 476;" xml:space="preserve">
<path style="fill:none;stroke:#000000;stroke-width:4.4279;stroke-miterlimit:10;" d="M485.9,310.6c-12.8,5.5-26.3,6.1-32,10.7
	c-5.8,4.6-11.3,6.6-17.1-4.4c-5.8-10.9-3.6-38.9-2.6-60.2c1.1-21.2,4.3-40.7,7.3-54.2c3-13.6,5.8-36.7,14.3-54.2c0,0,0,1,0,2.8
	c2.2-12.5,5.4-18.1,8.6-27.2c0.1,0.8,0.2,1.7,0.4,2.6c-0.8-14,13.4-33.8,24.5-47.7c6.4-8.1,30.7-29.7,44.4-40.2
	c13.7-10.5,26.5-3.9,30.7,3.9c4.3,7.9,2.6,23.6,10.7,44.6c0.6,1.6,1.2,3.3,1.8,5c0.3-1.2,0.7-2,1.2-2.5c-2.6-0.6-5.3-3.5,0-7.4
	c-7-0.3-7.6-10.2-3.3-12.3c-4.8-0.5-4.8-6.9-0.8-8.4c-3.9,0.2-6.5-7-0.6-8.5c-2.3-0.9-4-7.6,0.7-7.6c-5.2-2.2-4.9-12.6,0.6-11.2
	c-6.4-2.9-5.4-9.3,0-10.4c-8.2-2.9-2.4-10.7,1.6-11.5c4-0.9-0.1,0.1,0.5-3.1c0.6-3.2-3.6-2.2-4.5-6.1C571.5-1,582.7-4.5,583-2.3
	c0.3,2.2,2.6-0.6,8.9,1.8c6.3,2.5,5.5,20.2,0.2,22.8c3.9,0.4,3.2,8.1,0,10.7c5.3,0.6,7.3,8.2-1.2,9c7.1-0.1,7.2,8.5,1.2,9.3
	c4.3,0.3,8.2,8-0.8,9.6c6.7-0.1,6.7,8.7,0.8,9.6c3.5,0,7.5,6,0,9c7.6,1,5.3,8.5,1.4,9c2.4,0,4.7,7.1-0.5,7.4c2.4,0,5.1,6.1,8.3,6.9
	c-1.1,1.7-3.2,18.8-4.3,21.1c-1.1,2.3-8.9-2.3-10-2.2c-0.5,0.1-1.3,1.7-2.2,4.1c1.7,11.2,2.8,21.5,3.4,28.2c0.4,4.2-0.2,8.6-1.7,13
	c0.1,0.1,0.1,0.1,0.2,0.2c2.3,3.7,2.2,19.8-1.2,34.1c-3.4,14.3-5.7,29.5-19.6,49c-7.6,10.6-12.5,15.8-19.6,17.8
	c0.3,0.8,0.3,1.6,0.1,2.2c-1.1,2.9-10.7,15.2-18.8,20.3C519.2,295.5,498.7,305.2,485.9,310.6z"/>
<g>
	<g>
		<path style="fill:none;stroke:#000000;stroke-width:5.7509;stroke-miterlimit:10;" d="M553.8,158.5l-0.2,0c-3.5-0.1-5.1-3-6.5-5.3
			c-1.2-2.1-2.3-4.1-4.5-4.9c-1.3-0.5-2.3-0.4-3.5-0.3c-1.7,0.1-4,0.3-6-1.7c-2.3-2.2-2.1-4.9-2-6.7c0.1-1.5,0.1-2.2-0.3-2.9
			c-0.7-1-2.3-1.2-5.5-1.4c-3.8-0.2-8.5-0.4-12-4.3c-3.5-3.9-5-9.8-3.6-14.8c1.5-5.5,5.9-8.1,10.1-10.7c4.9-3,12.9-6.4,24-5.9
			c3.9,0.2,7.1,0.9,13.6,2.5c8.7,2.1,13.4,3.3,16.4,7.1c3,3.9,3,9.6,2,13.8c2.5,1.6,6.3,4.2,5.1,7.7c-0.7,2.1-2.6,2.7-4.6,2.8
			c1.1,1,2.1,2.6,1.8,5.2c-0.2,1.3-3.8,11.3-8.1,13.9c-2,1.3-3.7,1.2-5.1,1.1c-1-0.1-1.8-0.1-3.2,0.3c-1.7,0.5-2.5,1.3-3.3,2.1
			C557.4,157.1,556.1,158.5,553.8,158.5z"/>
	</g>
</g>
<path style="fill:none;stroke:#000000;stroke-width:5.7509;stroke-miterlimit:10;" d="M214.3,306l-5.6,21.2c-1,3.8-6.6,3.1-6.6-0.9
	c0-20.3-2.1-34.6-0.6-38.7c2.2-6,6.9-23.3,2.5-33.9c-7.2-17.4-16.9-17.2-24.4-14.3c0.3,0.3,0.7,0.7,1.2,1.1c10.5,9,24.7,24,12,50.9
	c-12.7,26.9-33.6,46.3-64.3,44.1c-30.6-2.3-75.5-29.2-87.5-91.3C28.9,182,62.4,136.9,83.5,120c55.7-44.9,95-7.1,98,15.7
	c3,22.8-8.2,39.2-12.3,40.4c-0.2,0-0.3,0.1-0.5,0.2c14.4,13.2,41.8,40.7,46.3,61.2c5.2,23.9,2.7,14.5-0.6,67.9
	C214.3,305.5,214.3,305.7,214.3,306z"/>
<g>
	<g>
		<path style="fill:none;stroke:#000000;stroke-width:5.7509;stroke-miterlimit:10;" d="M132.6,211.9c-2.7,0-5.6-0.8-8.1-2.2
			c-3.2-1.8-4.6-3.9-5.8-5.6c-0.9-1.3-1.6-2.3-3.4-3.6c-1.7-1.1-3.1-1.5-4.3-1.9c-1.9-0.5-4.6-1.3-6.2-4.4
			c-1.7-3.5-0.7-5.9,2.8-13.8l2.8-6.4c2-4.6,2.5-5.7,4.1-7.4c4.9-5.3,13.5-8.8,19.1-5.3c3.3,2,3.9,5.2,4.3,7c0.3,1.5,0.4,2,1,2.6
			c0.8,0.8,2,1,4.4,1.1c2.7,0.1,6.8,0.3,9.6,4c3.1,4.1,2.3,10.1,0.4,13.8c-1.4,2.6-2.7,4-3.7,4.8c0.9,4.2,1.4,7.5-0.9,9.8
			c-1.2,1.2-3.3,2.4-6.4,1.5c-1,2.4-2.6,3.8-3.9,4.5C136.6,211.5,134.7,211.9,132.6,211.9z"/>
	</g>
</g>
</svg>
