<?xml version="1.0" encoding="utf-8"?>
<!-- Generator: Adobe Illustrator 22.1.0, SVG Export Plug-In . SVG Version: 6.00 Build 0)  -->
<svg version="1.1" id="Layer_1" xmlns="http://www.w3.org/2000/svg" xmlns:xlink="http://www.w3.org/1999/xlink" x="0px" y="0px"
	 viewBox="0 0 206.1 106.8" style="enable-background:new 0 0 206.1 106.8;" xml:space="preserve">
<path style="fill:none;stroke:#000000;stroke-width:3;stroke-miterlimit:10;" d="M191.4,70.5c3.3,7.7,3.7,15.8,6.4,19.2
	c2.8,3.5,3.9,6.8-2.6,10.3c-6.6,3.5-23.4,2.2-36.1,1.5c-12.7-0.6-24.4-2.6-32.6-4.4c-8.1-1.8-22.1-3.5-32.6-8.6c0,0,0.6,0,1.7,0
	c-7.5-1.3-10.9-3.3-16.3-5.2c0.5-0.1,1-0.1,1.5-0.2c-8.4,0.5-20.3-8-28.7-14.7C47.2,64.6,34.2,50,27.9,41.8
	c-6.3-8.2-2.4-15.9,2.4-18.5c4.7-2.6,14.2-1.5,26.8-6.4c1-0.4,2-0.7,3-1.1c-0.7-0.2-1.2-0.4-1.5-0.7c-0.4,1.5-2.1,3.2-4.5,0
	c-0.2,4.2-6.1,4.6-7.4,2c-0.3,2.9-4.2,2.9-5.1,0.5c0.1,2.3-4.2,3.9-5.1,0.4c-0.5,1.4-4.6,2.4-4.6-0.4c-1.3,3.1-7.6,2.9-6.7-0.4
	c-1.7,3.8-5.6,3.2-6.3,0c-1.7,4.9-6.4,1.4-6.9-1c-0.5-2.4,0.1,0-1.8-0.3c-1.9-0.3-1.3,2.2-3.7,2.7c-2.3,0.5-4.4-6.2-3.1-6.3
	c1.3-0.2-0.4-1.6,1.1-5.3C6,3.1,16.6,3.6,18.2,6.8c0.3-2.3,4.9-1.9,6.4,0C25,3.6,29.6,2.4,30,7.5c-0.1-4.3,5.1-4.3,5.6-0.7
	c0.2-2.6,4.8-4.9,5.8,0.5c-0.1-4,5.3-4,5.8-0.5c0-2.1,3.6-4.5,5.4,0C53.1,2.3,57.7,3.6,58,6c0-1.4,4.2-2.8,4.5,0.3
	c0-1.4,3.6-3.1,4.1-5c1,0.7,11.3,1.9,12.7,2.6c1.4,0.7-1.4,5.3-1.3,6c0,0.3,1.1,0.8,2.4,1.3c6.7-1.1,12.9-1.7,16.9-2
	c2.5-0.2,5.2,0.1,7.8,1c0,0,0.1-0.1,0.1-0.1c2.2-1.4,11.9-1.3,20.5,0.7c8.6,2,17.7,3.4,29.4,11.8c6.4,4.6,9.5,7.5,10.7,11.8
	c0.5-0.2,0.9-0.2,1.3,0c1.7,0.6,9.2,6.4,12.2,11.3C182.3,50.5,188.1,62.8,191.4,70.5z"/>
<g>
	<g>
		<path style="fill:none;stroke:#000000;stroke-width:3;stroke-miterlimit:10;" d="M77.7,46.5l0,0.1c-0.1,1.6-1.4,2.4-2.5,3
			c-1,0.6-1.9,1.1-2.3,2.1c-0.2,0.6-0.2,1.1-0.2,1.6c0.1,0.8,0.1,1.8-0.8,2.8c-1,1.1-2.3,1-3.1,0.9c-0.7,0-1,0-1.3,0.2
			c-0.5,0.3-0.6,1-0.6,2.5c-0.1,1.7-0.2,3.9-2,5.5c-1.8,1.6-4.5,2.3-6.8,1.7c-2.5-0.7-3.8-2.7-5-4.7c-1.4-2.3-3-6-2.7-11.1
			c0.1-1.8,0.4-3.3,1.2-6.3c1-4,1.5-6.2,3.3-7.6c1.8-1.4,4.4-1.4,6.4-0.9c0.7-1.2,1.9-2.9,3.6-2.4c1,0.3,1.2,1.2,1.3,2.1
			c0.5-0.5,1.2-1,2.4-0.8c0.6,0.1,5.2,1.7,6.4,3.7c0.6,0.9,0.5,1.7,0.5,2.4c0,0.5,0,0.9,0.1,1.5c0.2,0.8,0.6,1.1,1,1.5
			C77,44.8,77.7,45.4,77.7,46.5z"/>
	</g>
</g>
</svg>
