<?xml version="1.0" encoding="utf-8"?>
<!-- Generator: Adobe Illustrator 22.1.0, SVG Export Plug-In . SVG Version: 6.00 Build 0)  -->
<svg version="1.1" id="Layer_1" xmlns="http://www.w3.org/2000/svg" xmlns:xlink="http://www.w3.org/1999/xlink" x="0px" y="0px"
	 viewBox="0 0 264 476" style="enable-background:new 0 0 264 476;" xml:space="preserve">
<path style="fill:none;stroke:#000000;stroke-width:5.7509;stroke-miterlimit:10;" d="M89.7,427.3c-16.6,7.1-34.1,8-41.6,13.9
	c-7.5,6-14.7,8.5-22.2-5.7c-7.5-14.2-4.7-50.6-3.3-78.1c1.4-27.5,5.5-52.8,9.4-70.4c3.9-17.6,7.5-47.7,18.6-70.4c0,0,0,1.3,0,3.6
	c2.8-16.3,7-23.5,11.2-35.3c0.1,1.1,0.3,2.2,0.5,3.3c-1.1-18.2,17.4-43.8,31.8-62c8.3-10.5,39.9-38.6,57.7-52.3
	c17.7-13.6,34.4-5.1,39.9,5.1c5.5,10.2,3.3,30.7,13.8,58c0.8,2.1,1.6,4.3,2.3,6.5c0.4-1.5,0.9-2.6,1.6-3.3c-3.3-0.8-6.8-4.5,0-9.7
	c-9.1-0.4-9.8-13.3-4.3-16c-6.3-0.6-6.3-9-1-10.9c-5.1,0.2-8.5-9.1-0.8-11.1c-3-1.1-5.1-9.9,1-9.9c-6.8-2.8-6.4-16.3,0.8-14.6
	c-8.3-3.8-7-12.1,0-13.6c-10.6-3.7-3.1-13.9,2.1-15c5.2-1.2-0.1,0.2,0.7-4c0.7-4.2-4.7-2.9-5.9-7.9c-1.2-5,13.3-9.5,13.7-6.7
	c0.4,2.8,3.4-0.8,11.5,2.4c8.1,3.2,7.1,26.2,0.2,29.6c5.1,0.6,4.1,10.5,0,13.9c6.9,0.8,9.5,10.7-1.6,11.6c9.3-0.2,9.3,11,1.6,12.1
	c5.6,0.4,10.6,10.4-1,12.5c8.7-0.2,8.7,11.4,1,12.5c4.5,0,9.7,7.8,0,11.6c9.8,1.3,6.9,11.1,1.8,11.7c3.1,0,6.1,9.2-0.7,9.7
	c3.1,0,6.6,7.9,10.8,8.9c-1.5,2.3-4.2,24.4-5.6,27.4c-1.5,3-11.5-3-13-2.8c-0.6,0.1-1.7,2.3-2.9,5.3c2.3,14.6,3.6,27.9,4.4,36.6
	c0.5,5.4-0.3,11.2-2.2,16.8c0.1,0.1,0.1,0.2,0.2,0.3c3,4.8,2.9,25.7-1.6,44.3c-4.4,18.5-7.4,38.3-25.5,63.6
	c-9.9,13.8-16.2,20.6-25.4,23.1c0.4,1.1,0.4,2,0.1,2.8c-1.4,3.7-13.8,19.8-24.4,26.3C133,407.7,106.4,420.2,89.7,427.3z"/>
<g>
	<g>
		<path style="fill:none;stroke:#000000;stroke-width:5.7509;stroke-miterlimit:10;" d="M141.8,181.5l-0.2,0c-3.5-0.1-5.1-3-6.5-5.3
			c-1.2-2.1-2.3-4.1-4.5-4.9c-1.3-0.5-2.3-0.4-3.5-0.3c-1.7,0.1-4,0.3-6-1.7c-2.3-2.2-2.1-4.9-2-6.7c0.1-1.5,0.1-2.2-0.3-2.9
			c-0.7-1-2.3-1.2-5.5-1.4c-3.8-0.2-8.5-0.4-12-4.3c-3.5-3.9-5-9.8-3.6-14.8c1.5-5.5,5.9-8.1,10.1-10.7c4.9-3,12.9-6.4,24-5.9
			c3.9,0.2,7.1,0.9,13.6,2.5c8.7,2.1,13.4,3.3,16.4,7.1c3,3.9,3,9.6,2,13.8c2.5,1.6,6.3,4.2,5.1,7.7c-0.7,2.1-2.6,2.7-4.6,2.8
			c1.1,1,2.1,2.6,1.8,5.2c-0.2,1.3-3.8,11.3-8.1,13.9c-2,1.3-3.7,1.2-5.1,1.1c-1-0.1-1.8-0.1-3.2,0.3c-1.7,0.5-2.5,1.3-3.3,2.1
			C145.4,180.1,144.1,181.5,141.8,181.5z"/>
	</g>
</g>
</svg>
