<?xml version="1.0" encoding="utf-8"?>
<!-- Generator: Adobe Illustrator 22.1.0, SVG Export Plug-In . SVG Version: 6.00 Build 0)  -->
<svg version="1.1" id="Layer_1" xmlns="http://www.w3.org/2000/svg" xmlns:xlink="http://www.w3.org/1999/xlink" x="0px" y="0px"
	 viewBox="0 0 749.5 168.8" style="enable-background:new 0 0 749.5 168.8;" xml:space="preserve">
<path style="fill:none;stroke:#000000;stroke-width:3;stroke-miterlimit:10;" d="M37.6,80.3c-5.8,0.7-12-6.1-14.5-12.1
	c-3.3-8-0.6-15.8,2.4-24.2c2.5-7.1,4.4-12.5,9.7-16.9c4.5-3.9,11.1-5,24.2-7.3c15-2.6,17.8-1.2,19.4,0c4.1,3.1,6.3,9.4,4.8,14.5
	C82,40,77.1,40.2,66.7,48.9c-7.4,6.1-12.6,12.2-14.5,14.5C42.8,74.6,42.4,79.7,37.6,80.3z"/>
<g>
	<g>
		<path style="fill:none;stroke:#000000;stroke-width:3;stroke-miterlimit:10;" d="M67.7,31.5c0,1.1-0.2,2-0.3,2.5
			c-0.3,1.3-0.8,2.1-1.2,2.7c-0.3,0.4-0.5,0.8-0.8,1.5c-0.6,1.3-0.7,2.3-0.8,3.1c-0.2,1.2-0.4,2.6-1.9,3.5c-0.9,0.6-2,0.5-5,0.3
			c-0.6,0-1-0.1-1.4-0.1l-0.1,0c-0.5,0-1-0.1-1.3-0.1c-0.5,0.4-0.7,1.7-0.8,2.3c-0.2,1.4,0,2.5,0.1,3.3c0.2,1.1,0.5,2.6-0.9,3.7
			c-0.8,0.6-1.8,0.7-2.9,0.5c-1.4-0.3-3.1-1.4-3.9-3.1c-0.5-1-0.5-1.7-0.2-4.9l0.1-1.2c0-0.1,0-0.3,0-0.4c-0.7,0.1-1.5,0.1-2.4,0
			c-1.4-0.3-2.2-0.9-2.7-1.3c-0.4-0.3-0.6-0.5-1.1-0.6c-0.6-0.1-0.9-0.1-1.3,0c-0.7,0.1-1.6,0.4-2.8-0.2c-2-0.9-3-3-3.4-4.6
			c-0.4-1.7-0.1-3.3,0.8-4.3c1.1-1.2,2.5-1.1,3.8-0.9c0.8,0.1,1.9,0.2,3.4,0.2c1.3,0,2.2-0.1,2.8-0.2c1.1-0.1,2-0.2,3.5,0.3
			c0.4,0.1,0.5,0.2,3.2,1.6c1.6-0.9,3.4-2.4,3.8-3.9c0.1-0.4,0-0.7-0.1-1.1c-0.2-0.7-0.4-1.8,0.2-3.2c1.3-2.5,4.9-3.8,8-2.9
			c3.7,1,5,4.4,5.2,5.1C67.6,29.8,67.7,30.7,67.7,31.5z"/>
	</g>
</g>
</svg>
