<?xml version="1.0" encoding="utf-8"?>
<!-- Generator: Adobe Illustrator 22.1.0, SVG Export Plug-In . SVG Version: 6.00 Build 0)  -->
<svg version="1.1" id="Layer_1" xmlns="http://www.w3.org/2000/svg" xmlns:xlink="http://www.w3.org/1999/xlink" x="0px" y="0px"
	 viewBox="0 0 264 476" style="enable-background:new 0 0 264 476;" xml:space="preserve">
<path style="fill:none;stroke:#000000;stroke-width:5.7509;stroke-miterlimit:10;" d="M40.5,223.9c-2.1-17.2,18.1-35.4,35.7-42.8
	c23.5-9.9,46.5-1.7,71.3,7.1c20.9,7.5,36.8,13.1,49.9,28.5c11.4,13.4,14.7,32.7,21.4,71.3c7.6,44.1,3.4,52.4,0,57
	c-9.1,12.1-27.8,18.5-42.8,14.3c-16.6-4.7-17.4-19-42.8-49.9c-17.9-21.8-35.9-37.1-42.8-42.8C57.5,239,42.2,237.9,40.5,223.9z"/>
<g>
	<g>
		<path style="fill:none;stroke:#000000;stroke-width:5.7509;stroke-miterlimit:10;" d="M184.3,312.5c-3.2,0-5.8-0.6-7.3-1
			c-3.9-1-6-2.3-7.9-3.5c-1.2-0.8-2.3-1.5-4.4-2.4c-3.8-1.7-6.8-2.1-9.1-2.4c-3.4-0.5-7.6-1.1-10.4-5.5c-1.7-2.7-1.5-6-0.9-14.7
			c0.1-1.7,0.2-3,0.3-4.2l0-0.3c0.1-1.4,0.2-3,0.2-3.7c-1.1-1.4-5.1-2.1-6.9-2.4c-4.1-0.7-7.2-0.1-9.8,0.4
			c-3.1,0.6-7.8,1.4-10.8-2.6c-1.7-2.2-2.2-5.3-1.4-8.6c1-4,4.2-9.2,9.1-11.6c2.8-1.3,5-1.4,14.3-0.6l3.6,0.3c0.4,0,0.8,0.1,1.2,0.1
			c-0.3-2-0.4-4.3,0.1-7c0.8-4.1,2.6-6.4,3.9-8c0.9-1.2,1.4-1.8,1.8-3.3c0.4-1.6,0.2-2.5-0.1-3.9c-0.4-1.9-1.1-4.8,0.5-8.4
			c2.5-5.8,8.7-9,13.6-10c5.1-1.1,9.7-0.2,12.6,2.4c3.6,3.3,3.1,7.4,2.7,11.1c-0.3,2.3-0.7,5.5-0.7,10.1c0,3.9,0.3,6.4,0.5,8.4
			c0.4,3.2,0.7,6-0.8,10.3c-0.4,1.1-0.5,1.5-4.6,9.4c2.8,4.9,7.2,10.1,11.5,11.1c1.2,0.3,2,0.1,3.3-0.2c2.2-0.5,5.4-1.3,9.4,0.7
			c7.3,3.7,11.2,14.4,8.6,23.7c-3,10.8-13.1,14.6-15.1,15.3C189.2,312.1,186.8,312.5,184.3,312.5z"/>
	</g>
</g>
</svg>
