<?xml version="1.0" encoding="utf-8"?>
<!-- Generator: Adobe Illustrator 22.1.0, SVG Export Plug-In . SVG Version: 6.00 Build 0)  -->
<svg version="1.1" id="Layer_1" xmlns="http://www.w3.org/2000/svg" xmlns:xlink="http://www.w3.org/1999/xlink" x="0px" y="0px"
	 viewBox="0 0 264 476" style="enable-background:new 0 0 264 476;" xml:space="preserve">
<path style="fill:none;stroke:#000000;stroke-width:5.7509;stroke-miterlimit:10;" d="M84.1,25.3C84,28.6,83.9,31.9,84,35
	c0,1.6,0.1,3.1,0.2,4.5l0.1,1l0.1,0.8l0,0.2v0c0,0,0-0.1,0-0.1c0,0,0,0,0,0l0,0.1l0.1,0.1l0.1,0.2c0.3,0.8,0.9,2.1,1.7,3.3
	c0.7,1.2,1.6,2.5,2.5,3.8c1.8,2.6,3.7,5.2,5.7,7.9c4,5.3,8.1,10.7,12.1,16.2c8,11,16,22.5,21.7,35.9c1.4,3.3,2.7,6.8,3.6,10.4
	c0.5,1.9,0.8,3.5,1.2,5.2c0.4,1.7,0.7,3.4,1.1,5.1c1.3,6.8,11.1,18.3,12,25c1.7,13.5-5.9,22.3-5.2,35.8c0,0.5,0.1,1,0.1,1.5
	c0.2,0.3,0.4,0.5,0.6,0.8c0.7,0.9,1.4,1.8,2.1,2.8l4.5,5.8c3.1,3.9,6,8,8.8,12.2c5.4,8.5,9.8,17.9,12.3,27.8
	c4.7,19.4,6.3,39.4,4.8,59.2c-0.7,9.9-2.1,19.7-4,29.3c0,0.2-0.1,0.4-0.1,0.7c0,0,0,0,0,0c0.1,3.1,1,6.1,2.3,9.1
	c1.4,3.4,3.3,6.6,5.3,9.7c2,3.1,4.2,6.1,6.5,9.2c2.2,3,4.6,6,6.5,9.2c-2.1-3.1-4.7-5.9-7.1-8.8c-2.5-2.8-4.9-5.7-7.1-8.8
	c-2.3-3-4.4-6.2-6.2-9.6c-0.5-1.1-1-2.2-1.5-3.3c-0.4,2.3-0.8,4.5-1.1,6.8c-0.6,4.8-1,9.5-0.8,14.3c0.4,9.6,2.7,19.1,4.6,28.7
	c1.9,9.6,3.6,19.2,5,28.9c-1.9-9.6-4.1-19.1-6.5-28.5c-2.4-9.5-5.2-18.8-6.2-28.8c-0.5-5-0.4-10,0-14.9c0.3-4.9,1-9.8,1.8-14.7
	c1.6-9.6,2.7-19.2,3-28.8c0.8-19.2-1.3-38.6-6.4-57c-2.5-9-6.8-17.4-12.1-25.2c-2.6-3.8-5.5-7.5-8.5-11.1c0.3,8,0.4,16,0.5,24l0,5.1
	l0.2,4.9c0,3.3,0.4,6.6,0.5,9.9l0.8,10l1,10c6,53.3,12.5,107.1,11.1,161l-1.1,0c-0.7-26.9-2.9-53.6-6.3-80.2
	c-1.6-13.3-3.5-26.6-5.5-39.9l-5.9-39.9l-1.4-10l-1.2-10.1c-0.3-3.4-0.8-6.7-0.9-10.2l-0.3-5.1l-0.3-5c-0.7-13.4-1.7-26.7-3-40
	c-1.3-13.3-7.8-23.6-9.9-36.7c-1.1-6.5,2.6-15.9,1.1-22.2c-0.3-1.6-0.7-3.2-1.2-4.8c-0.1-0.4-0.2-0.7-0.3-1.1
	c-0.1,1-0.2,2.1-0.4,3.2c-0.3,1-0.4,2.1-0.8,3c-0.6,2-1.4,3.9-2.3,5.8c-0.4,0.9-0.9,1.8-1.4,2.7l-1.4,2.4c-0.9,1.6-1.7,3.2-2.5,4.8
	c-1.6,3.2-3,6.5-4,10c-1,3.4-1.7,7-2.4,10.7c-0.7,3.7-1.6,7.7-3.5,11.2c-1.9,3.5-4.5,6.4-7.3,8.9c2.1-3.2,4-6.4,5-9.8
	c1.1-3.4,1.3-7,1.5-10.7c0.1-7.5,1.6-15.6,4.6-22.8c0.7-1.8,1.5-3.6,2.4-5.3c0.4-0.9,0.9-1.8,1.3-2.5c0.3-0.8,0.8-1.6,1.1-2.4
	c1.3-3.1,2.2-6.3,2.6-9.6c0.3-3.2,0.3-6.6,0-10.2c-0.2-2.9-0.6-5.8-0.8-8.9c-4.9-8.4-10.9-16.5-17.1-24.4
	c-4.1-5.2-8.4-10.3-12.6-15.6c-2.1-2.7-4.3-5.3-6.4-8.2c-1.1-1.4-2.1-2.9-3.2-4.5c-1-1.6-2.1-3.3-3.1-5.6l-0.4-0.8l-0.1-0.2
	l-0.1-0.3l-0.2-0.7L68,45.6l-0.1-0.5l-0.2-1l-0.2-1.7l-0.1-1.5c-0.2-1.9-0.2-3.8-0.3-5.5c-0.1-3.6,0-7,0-10.5"/>
<g>
	<g>
		<g>
			<path style="fill:none;stroke:#000000;stroke-width:5.7509;stroke-miterlimit:10;" d="M140.2,192.2c-0.8,0-1.9-0.5-5.9-6.1
				c-1.6-2.3-4.5-6.5-5.1-9.2c-1.1-4.6-1.4-14.2-1.6-18.8c-0.1-2.4,0.6-5.6,1.4-9c0.8-3.5,1.6-7.1,1.5-9.6c0-1.4-0.2-2.8-0.3-4.1
				c-0.3-4-0.5-6,1.2-6.8c0.4-0.2,1.6-0.6,2.8,0.6c2.1,2,2.7,3.9,2.8,4.1l0,0.2c0.5,2.6,2.6,6.4,4.7,10.1c2.5,4.3,5,8.8,5.4,12.3
				c0.7,6.7-0.9,12-2.5,17.2c-1.4,4.7-2.7,9.1-2.6,14.4l0,0.3c0,0.2,0,0.3,0,0.6l0.1,3.4l-1.7,0.3
				C140.4,192.2,140.3,192.2,140.2,192.2z"/>
		</g>
	</g>
</g>
</svg>
