<?xml version="1.0" encoding="utf-8"?>
<!-- Generator: Adobe Illustrator 22.1.0, SVG Export Plug-In . SVG Version: 6.00 Build 0)  -->
<svg version="1.1" id="Layer_1" xmlns="http://www.w3.org/2000/svg" xmlns:xlink="http://www.w3.org/1999/xlink" x="0px" y="0px"
	 viewBox="0 0 749.5 168.8" style="enable-background:new 0 0 749.5 168.8;" xml:space="preserve">
<path style="fill:none;stroke:#000000;stroke-width:3;stroke-miterlimit:10;" d="M516,21.6c3.8,0.5,7.5,0.8,11.3,0.6
	c7.5-0.3,15.1-2.2,22.6-3.6c7.6-1.5,15.2-2.8,22.8-4c-7.6,1.5-15.1,3.2-22.5,5.2c-7.5,1.9-14.9,4.1-22.7,4.9
	c-3.9,0.4-7.9,0.3-11.8,0c-3.9-0.3-7.8-0.8-11.6-1.4c-7.5-1.3-15.1-2.1-22.7-2.4c-15.2-0.6-30.4,1-44.9,5c-7.1,2-13.7,5.4-19.8,9.5
	c-3,2.1-5.9,4.3-8.8,6.7c6.3-0.2,12.6-0.3,18.9-0.4l4,0l3.9-0.1c2.6,0,5.2-0.3,7.8-0.4l7.9-0.6l7.9-0.8c42-4.7,84.5-9.9,126.9-8.8
	l0,0.9c-21.2,0.5-42.3,2.3-63.3,5c-10.5,1.3-21,2.8-31.4,4.3l-31.5,4.6l-7.9,1.1l-8,0.9c-2.7,0.2-5.3,0.6-8,0.7l-4.1,0.3l-4,0.2
	c-10.5,0.6-21.1,1.3-31.5,2.3c-10.5,1-18.6,6.1-28.9,7.8c-5.1,0.9-12.5-2.1-17.5-0.9c-1.3,0.3-2.5,0.6-3.7,0.9
	c-0.3,0.1-0.6,0.1-0.8,0.2c0.8,0.1,1.7,0.2,2.5,0.3c0.8,0.2,1.6,0.3,2.4,0.6c1.6,0.5,3.1,1.1,4.6,1.8c0.7,0.3,1.4,0.7,2.1,1.1
	l1.9,1.1c1.2,0.7,2.5,1.3,3.8,2c2.6,1.2,5.1,2.3,7.8,3.1c2.7,0.8,5.5,1.4,8.4,1.9c2.9,0.5,6,1.3,8.8,2.7c2.8,1.5,5,3.5,7,5.8
	c-2.5-1.6-5-3.1-7.8-4c-2.7-0.9-5.5-1-8.4-1.2c-5.9-0.1-12.3-1.3-18-3.6c-1.4-0.6-2.8-1.2-4.2-1.9c-0.7-0.3-1.4-0.7-2-1
	c-0.6-0.3-1.2-0.6-1.9-0.8c-2.5-1.1-5-1.8-7.6-2c-2.6-0.3-5.2-0.2-8,0c-2.2,0.2-4.6,0.5-7.1,0.6c-6.6,3.8-13,8.6-19.2,13.5
	c-4.1,3.2-8.1,6.6-12.3,10c-2.1,1.7-4.2,3.4-6.5,5.1c-1.1,0.8-2.3,1.7-3.6,2.5c-1.3,0.8-2.6,1.6-4.4,2.4l-0.7,0.3l-0.2,0.1l-0.3,0.1
	l-0.5,0.2l-0.6,0.2l-0.4,0.1l-0.8,0.2l-1.3,0.2l-1.2,0.1c-1.5,0.1-3,0.2-4.4,0.2c-2.8,0.1-5.5,0-8.2,0c-5.4-0.1-10.7,0.4-16,0.2
	c-10.6-0.5-25.9-0.6-36.5-1.3l-58.6-2.9c-14.3-1-22.2,0-36.5-0.7c-4,10.3-9.3,23.1-12,23.8c-3.1,0.7-4.2,3.8-9.2,3.4
	c-0.5,3-6.3,3.2-12.1,3.7c-5.8,0.5-8.8-0.6-18.5-0.7c-9.7,0-15.4-8.9-13.7-17.2c-6.3,6.5-11.7,4.1-25.6,3.2
	c-13.9-0.9-22.8-29.3-14.7-36.5c5.5-4.8,10.1-4.9,15.3-5.1v0c0.1,6,0.6,8.8-0.9,10c-1.5,1.1,3.4,12.5,9.1,7.6
	c3.9,1.6,6.4,2.2,10.7,3.9c4.3,1.6,6.5-2.8,8.1-6.7c1.7-3.9,5.3-12.7-0.7-13c-6.1-0.2-13,0.2-15.9,2.1c-0.3-1.9-0.3-3.7-0.3-5.3
	c6.8-1.4,3.8-0.2,10.5-6.4c7.3-6.7,9.4-6.7,14.5-7.7c5-1,7.8-4.2,15-9.2c7.3-5,9.6-4.1,18.9-7.9c9.3-3.8,19.6,1.3,25.1,9.3
	c4.1,5.9,3.7,19.6,1.2,31c0.1,0,0.3,0,0.4,0c10.7,0.4,21.3,1,31.9,1.6c21.2,1.3,42.3,2.9,63.5,4.4c10.6,0.8,21.1,1.5,31.6,2.1
	c5.3,0.3,10.5,0.6,15.7,0.8c2.6,0.1,5.2,0.1,7.7,0.1c1.2,0,2.5-0.1,3.6-0.1l0.8-0.1l0.6-0.1l0.2,0h0c0,0,0,0-0.1,0c0,0,0,0,0,0l0,0
	l0.1,0l0.1-0.1c0.7-0.3,1.6-0.7,2.6-1.3c1-0.6,2-1.3,3-1.9c2-1.4,4.1-2.9,6.2-4.5c4.2-3.1,8.4-6.4,12.8-9.6
	c8.7-6.3,17.8-12.6,28.3-17.1c2.6-1.1,5.4-2.1,8.2-2.9c1.5-0.4,2.7-0.6,4.1-1c1.3-0.3,2.7-0.6,4-0.8c5.3-1.1,14.4-8.8,19.7-9.5
	c10.7-1.4,17.6,4.7,28.3,4.1c0.4,0,0.8,0,1.2-0.1c0.2-0.1,0.4-0.3,0.7-0.5c0.7-0.5,1.5-1.1,2.2-1.7l4.5-3.6c3.1-2.4,6.3-4.8,9.6-6.9
	c6.7-4.3,14.1-7.8,21.9-9.7c15.3-3.7,31.1-4.9,46.7-3.8c7.8,0.5,15.5,1.6,23.1,3.2c0.2,0,0.3,0.1,0.5,0.1c0,0,0,0,0,0
	c2.4-0.1,4.8-0.8,7.2-1.8c2.6-1.1,5.2-2.6,7.7-4.2c2.5-1.6,4.9-3.4,7.2-5.1c2.4-1.8,4.7-3.6,7.3-5.1c-2.5,1.7-4.6,3.7-6.9,5.6
	c-2.2,1.9-4.5,3.8-6.9,5.6c-2.4,1.8-4.9,3.5-7.6,4.9c-0.8,0.4-1.7,0.8-2.6,1.2C512.4,21.1,514.2,21.4,516,21.6z"/>
</svg>
