<?xml version="1.0" encoding="utf-8"?>
<!-- Generator: Adobe Illustrator 22.1.0, SVG Export Plug-In . SVG Version: 6.00 Build 0)  -->
<svg version="1.1" id="Layer_1" xmlns="http://www.w3.org/2000/svg" xmlns:xlink="http://www.w3.org/1999/xlink" x="0px" y="0px"
	 viewBox="0 0 749.5 168.8" style="enable-background:new 0 0 749.5 168.8;" xml:space="preserve">
<path style="fill:none;stroke:#000000;stroke-width:3;stroke-miterlimit:10;" d="M122,14.6l9.2,2.5c1.6,0.4,1.3,2.9-0.4,2.9
	c-8.8,0-15.1,0.9-16.9,0.2c-2.6-1-10.1-3-14.8-1.1c-7.6,3.2-7.5,7.4-6.2,10.7c0.1-0.2,0.3-0.3,0.5-0.5c3.9-4.6,10.5-10.8,22.2-5.2
	c11.7,5.5,20.2,14.7,19.2,28c-1,13.3-12.7,32.9-39.8,38.1C68,95.4,48.3,80.7,41,71.6c-19.6-24.3-3.1-41.4,6.8-42.7
	c9.9-1.3,17.1,3.6,17.6,5.4c0,0.1,0,0.2,0.1,0.2c5.8-6.3,17.7-18.2,26.7-20.2c10.4-2.3,6.3-1.2,29.6,0.2
	C121.8,14.5,121.9,14.5,122,14.6z"/>
<g>
	<g>
		<path style="fill:none;stroke:#000000;stroke-width:3;stroke-miterlimit:10;" d="M81.1,50.2c0,1.2-0.4,2.4-1,3.5
			c-0.8,1.4-1.7,2-2.4,2.5c-0.6,0.4-1,0.7-1.6,1.5c-0.5,0.8-0.7,1.3-0.8,1.9c-0.2,0.8-0.5,2-1.9,2.7c-1.5,0.8-2.6,0.3-6-1.2
			l-2.8-1.2c-2-0.9-2.5-1.1-3.2-1.8c-2.3-2.2-3.8-5.9-2.3-8.3c0.9-1.4,2.2-1.7,3.1-1.9c0.6-0.1,0.9-0.2,1.1-0.4
			c0.4-0.4,0.4-0.9,0.5-1.9c0.1-1.2,0.1-3,1.7-4.2c1.8-1.3,4.4-1,6-0.2c1.1,0.6,1.7,1.2,2.1,1.6c1.8-0.4,3.3-0.6,4.3,0.4
			c0.5,0.5,1.1,1.5,0.7,2.8c1.1,0.4,1.6,1.1,2,1.7C80.9,48.4,81.1,49.2,81.1,50.2z"/>
	</g>
</g>
</svg>
